{"title":"The.Wolverine.2013.CAM.NEW.SOURCE.READNFO.XViD-FANTA","uid":8768316,"size":1472005722,"categoryP":"video","categoryS":"movies","magnet":"?xt=urn:btih:8314d74139f69784be991bfb38c134fe171c5a6d&amp;dn=The.Wolverine.2013.CAM.NEW.SOURCE.READNFO.XViD-FANTA&amp;tr=udp%3A%2F%2Ftracker.openbittorrent.com%3A80&amp;tr=udp%3A%2F%2Fopen.demonii.com%3A1337&amp;tr=udp%3A%2F%2Ftracker.coppersurfer.tk%3A6969&amp;tr=udp%3A%2F%2Fexodus.desync.com%3A6969","seeders":1,"leechers":0,"uploader":"xxxlavalxxx","files":-1,"time":1375387269,"description":" &lt;a href=&quot;\nhttp://www.imdb.com/title/tt1430132/&quot; rel=&quot;nofollow&quot; target=&quot;_NEW&quot;&gt;\nhttp://www.imdb.com/title/tt1430132/&lt;/a&gt;\n\n\n\nSummoned to Japan by an old acquaintance, Wolverine becomes embroiled in a conflict that forces him to confront his own demons. \n\n\n\nDirector:\n James Mangold \n\nWriters:\n Mark Bomback (screenplay), Scott Frank (screenplay) \n\nStars:\n Hugh Jackman, Tao Okamoto, Rila Fukushima\n\nGenres:\n  Action |  Adventure |  Fantasy |  Sci-Fi \n\nCountry:\n USA  \n\n\nFormat                                   : AVI\nFormat/Info                              : Audio Video Interleave\nFormat profile                           : OpenDML\nFormat settings                          : rec\nFile size                                : 1.34 GiB\nDuration                                 : 1h 49mn\nOverall bit rate                         : 1 750 Kbps\nWriting application                      : AVI-Mux GUI 1.17.8.3, Feb 16 201019:42:50\n\nVideo\nID                                       : 0\nFormat                                   : MPEG-4 Visual\nFormat profile                           : Advanced Simple@L5\nFormat settings, BVOP                    : 1\nFormat settings, QPel                    : No\nFormat settings, GMC                     : No warppoints\nFormat settings, Matrix                  : Default (H.263)\nMuxing mode                              : Packed bitstream\nCodec ID                                 : XVID\nCodec ID/Hint                            : XviD\nDuration                                 : 1h 49mn\nBit rate                                 : 1 552 Kbps\nWidth                                    : 720 pixels\nHeight                                   : 288 pixels\nDisplay aspect ratio                     : 2.500\nFrame rate                               : 25.000 fps\nColor space                              : YUV\nChroma subsampling                       : 4:2:0\nBit depth                                : 8 bits\nScan type                                : Progressive\nCompression mode                         : Lossy\nBits/(Pixel*Frame)                       : 0.299\nStream size                              : 1.19 GiB (89%)\nWriting library                          : XviD 64\n\nAudio\nID                                       : 1\nFormat                                   : AC-3\nFormat/Info                              : Audio Coding 3\nCodec ID                                 : 2000\nDuration                                 : 1h 49mn\nBit rate mode                            : Constant\nBit rate                                 : 192 Kbps\nChannel(s)                               : 2 channels\nSampling rate                            : 48.0 KHz\nCompression mode                         : Lossy\nStream size                              : 151 MiB (11%)\nAlignment                                : Aligned on interleaves\nTitle                                    : the wolverine 2013 better audio-moviesounds123-New\n\n\n\n\n\ninfo\n\n\n    &lt;a href=&quot;\thttp://addpix.net/viewer.php?file=99672119164190348915.png&quot; rel=&quot;nofollow&quot; target=&quot;_NEW&quot;&gt;\thttp://addpix.net/viewer.php?file=99672119164190348915.png&lt;/a&gt;\n\n\nscreens\n\n\n    &lt;a href=&quot;\thttp://addpix.net/viewer.php?file=19144242988098800130.jpg&quot; rel=&quot;nofollow&quot; target=&quot;_NEW&quot;&gt;\thttp://addpix.net/viewer.php?file=19144242988098800130.jpg&lt;/a&gt;\n    &lt;a href=&quot;\thttp://addpix.net/viewer.php?file=60980593258745647830.jpg&quot; rel=&quot;nofollow&quot; target=&quot;_NEW&quot;&gt;\thttp://addpix.net/viewer.php?file=60980593258745647830.jpg&lt;/a&gt;\n    &lt;a href=&quot;\thttp://addpix.net/viewer.php?file=24964244135900620341.jpg&quot; rel=&quot;nofollow&quot; target=&quot;_NEW&quot;&gt;\thttp://addpix.net/viewer.php?file=24964244135900620341.jpg&lt;/a&gt;\n    &lt;a href=&quot;\thttp://addpix.net/viewer.php?file=69910637583324797960.jpg&quot; rel=&quot;nofollow&quot; target=&quot;_NEW&quot;&gt;\thttp://addpix.net/viewer.php?file=69910637583324797960.jpg&lt;/a&gt;\n    &lt;a href=&quot;\thttp://addpix.net/viewer.php?file=32593412283450611606.jpg&quot; rel=&quot;nofollow&quot; target=&quot;_NEW&quot;&gt;\thttp://addpix.net/viewer.php?file=32593412283450611606.jpg&lt;/a&gt;\n    &lt;a href=&quot;\thttp://addpix.net/viewer.php?file=68213428517211630332.jpg&quot; rel=&quot;nofollow&quot; target=&quot;_NEW&quot;&gt;\thttp://addpix.net/viewer.php?file=68213428517211630332.jpg&lt;/a&gt;","torrent":{"xt":"urn:btih:8314d74139f69784be991bfb38c134fe171c5a6d","amp;dn":"The.Wolverine.2013.CAM.NEW.SOURCE.READNFO.XViD-FANTA","amp;tr":["udp%3A%2F%2Ftracker.openbittorrent.com%3A80","udp%3A%2F%2Fopen.demonii.com%3A1337","udp%3A%2F%2Ftracker.coppersurfer.tk%3A6969","udp%3A%2F%2Fexodus.desync.com%3A6969"],"infoHash":"8314d74139f69784be991bfb38c134fe171c5a6d","infoHashBuffer":{"type":"Buffer","data":[131,20,215,65,57,246,151,132,190,153,27,251,56,193,52,254,23,28,90,109]},"announce":[],"urlList":[]}}